<?xml version="1.0" standalone="no"?>
<!DOCTYPE svg PUBLIC "-//W3C//DTD SVG 1.1//EN" "http://www.w3.org/Graphics/SVG/1.1/DTD/svg11.dtd" >
<svg xmlns="http://www.w3.org/2000/svg">
<metadata>
This is a custom SVG webfont generated by Font Squirrel.
Copyright   : c Ray Larabie 20062008 Do not distribute Report piracy to piracytypodermiccom Visit wwwtypodermiccom and wwwlarabiefontscom
Designer    : Ray Larabie
Foundry     : Ray Larabie
Foundry URL : httpwwwtypodermiccom
</metadata>
<defs>
<font id="webfontHioEustJ" horiz-adv-x="1128" >
<font-face units-per-em="2048" ascent="1638" descent="-410" />
<missing-glyph horiz-adv-x="593" />
<glyph unicode=" "  horiz-adv-x="593" />
<glyph unicode="&#x09;" horiz-adv-x="593" />
<glyph unicode="&#xa0;" horiz-adv-x="593" />
<glyph unicode="!" horiz-adv-x="411" d="M102 1599h205l-28 -1120h-148zM121 240h170v-240h-170v240z" />
<glyph unicode="&#x22;" horiz-adv-x="520" d="M31 1593h135l-29 -518h-80zM350 1593h137l-30 -518h-78z" />
<glyph unicode="#" horiz-adv-x="1277" d="M395 295l-116 14l49 338h-226v111h238l51 319h-250v113h265l55 360l117 -14l-52 -346h308l55 360l117 -14l-54 -346h224v-113h-236l-49 -319h246v-111h-260l-54 -352l-116 14l49 338h-307zM512 1077l-49 -319h305l49 319h-305z" />
<glyph unicode="$" horiz-adv-x="1050" d="M567 0h-104v209q-205 0 -348 22v138q172 -25 352 -25q72 0 119 5t98 22.5t76.5 57.5t25.5 101q0 143 -176 175q-10 2 -74.5 10t-106.5 16t-105.5 30.5t-112.5 53.5q-63 41 -86 102.5t-23 178.5q0 53 4 151q150 74 357 92v222h104v-222q270 -14 305 -18v-137 q-145 23 -294 22q-123 0 -314 -45q-4 -35 -4 -102q0 -72 31 -112t102 -60q39 -10 160 -27.5t182 -40.5q211 -72 211 -291q0 -162 -90 -228.5t-289 -88.5v-211z" />
<glyph unicode="%" horiz-adv-x="1671" d="M1266 1573h129l-987 -1573h-129zM102 1210q0 371 322 371q317 0 317 -371q0 -367 -317 -366q-322 -1 -322 366zM213 1210q0 -260 211 -260q207 0 207 260q0 262 -207 263q-211 -1 -211 -263zM928 356q0 369 323 369q317 0 318 -369q0 -367 -318 -366q-323 -1 -323 366z M1040 356q0 -260 211 -260q207 0 207 258q0 266 -207 267q-211 -1 -211 -265z" />
<glyph unicode="&#x26;" horiz-adv-x="1290" d="M616 1587q270 0 476 -35l-15 -159q-225 37 -465 37q-178 0 -260 -70t-82 -232q0 -244 277 -243h641v-844q-248 -70 -598 -70q-287 0 -408 114t-121 376q0 276 207 358q-80 39 -121 125t-41 197q0 252 122 349t388 97zM233 473q0 -203 90.5 -272.5t294.5 -69.5 q233 0 396 35v573h-471q-310 0 -310 -266z" />
<glyph unicode="'" horiz-adv-x="198" d="M31 1593h135l-29 -518h-80z" />
<glyph unicode="(" horiz-adv-x="573" d="M352 1694l99 -41q-227 -358 -228 -926q0 -592 248 -915l-92 -43q-276 311 -277 960q0 621 250 965z" />
<glyph unicode=")" horiz-adv-x="573" d="M109 1649l92 43q270 -324 270 -957q0 -643 -256 -966l-98 41q231 338 231 923q1 576 -239 916z" />
<glyph unicode="*" horiz-adv-x="1024" d="M324 786l-99 76l213 260l-336 107l39 112l326 -124l-16 339h129l-13 -342l316 125l39 -112l-330 -103l205 -260l-103 -76l-180 275z" />
<glyph unicode="+" horiz-adv-x="1148" d="M512 1257h129v-417h406v-117h-406v-418h-129v418h-410v117h410v417z" />
<glyph unicode="," horiz-adv-x="387" d="M135 -303l-74 10q72 362 95 535l168 -19q-56 -286 -189 -526z" />
<glyph unicode="-" horiz-adv-x="761" d="M659 666v-154h-557v154h557z" />
<glyph unicode="." horiz-adv-x="292" d="M61 240h170v-240h-170v240z" />
<glyph unicode="/" horiz-adv-x="808" d="M662 1612h126l-638 -1663h-125z" />
<glyph unicode="0" horiz-adv-x="1363" d="M676 1587q166 0 277.5 -42t173 -101.5t91 -184t36 -228t6.5 -296.5q0 -418 -131.5 -591t-483.5 -173q-84 0 -153.5 8.5t-125 30t-98.5 45t-73.5 64.5t-53 77.5t-38 97t-23.5 110t-12.5 128t-5.5 138t-1 153.5q0 418 131.5 591t483.5 173zM676 1427q-78 0 -137.5 -8 t-105.5 -29.5t-77.5 -47t-54 -70.5t-35 -89t-19.5 -115t-9 -135.5t-2 -160.5t1 -152.5t7 -129t17 -112.5t30.5 -88t49.5 -72.5t73 -47.5t100 -32t131 -9q119 0 198 24.5t127 67.5t72.5 129t32.5 181.5t8 252.5q0 96 -1 152.5t-7 129.5t-17 113t-30.5 88t-49.5 72.5t-72 47 t-99 31.5t-131 9z" />
<glyph unicode="1" horiz-adv-x="591" d="M487 2h-172v1352q-8 33 -34 47l-236 -60l-27 156l299 84q141 -37 170 -158v-1421z" />
<glyph unicode="2" horiz-adv-x="1210" d="M1075 158l10 -158q-207 -29 -434 -29q-190 0 -347 43t-243 105v289q0 102 40 184t107.5 133t139.5 83t156 52q45 10 116.5 24.5t105.5 22.5t84 24.5t72.5 35t48 49.5t35 75t9.5 103q0 74 -36 122t-101.5 70.5t-131 30.5t-153.5 8q-172 0 -387 -32q-2 27 -8 84t-8 86 q221 25 438 24q131 0 221 -14t173 -52t125 -117t42 -198q0 -193 -67.5 -282.5t-186.5 -132.5q-76 -29 -340 -80q-154 -29 -241 -112t-87 -196v-192q150 -84 414 -84q219 0 434 31z" />
<glyph unicode="3" horiz-adv-x="1232" d="M618 1430q-242 0 -464 -37l-15 159q205 35 475 35q266 0 389 -97t123 -349q0 -111 -42 -197t-121 -125q209 -76 208 -358q0 -262 -121.5 -376t-408.5 -114q-350 0 -559 58l35 155q195 -53 495 -53q205 0 296 69.5t91 272.5q0 137 -76.5 201.5t-232.5 64.5h-469v146h465 q274 0 275 243q0 162 -81.5 232t-261.5 70z" />
<glyph unicode="4" horiz-adv-x="1290" d="M1188 0h-174v418q-270 -18 -381 -19q-133 0 -217 16.5t-162 68t-115 161t-37 283.5v633h172v-572q0 -231 71 -330.5t233 -99.5q266 0 436 19v983h174v-1561z" />
<glyph unicode="5" horiz-adv-x="1183" d="M72 -4l18 168q223 -35 430 -35q96 0 166 11.5t133.5 41t96 92t32.5 154.5q0 127 -31.5 192.5t-127 99.5t-281.5 34h-447v807h996v-160h-830v-488h289q291 0 448.5 -108.5t157.5 -388.5q0 -135 -43 -225.5t-128 -136.5t-186 -64.5t-245 -18.5q-223 0 -448 25z" />
<glyph unicode="6" horiz-adv-x="1333" d="M1208 1546l-22 -160q-229 45 -389 46q-190 0 -412 -50q-135 -199 -158 -522q174 102 480 103q299 0 431 -107.5t132 -366.5q0 -152 -47 -255t-137.5 -159.5t-202 -80t-262.5 -23.5q-139 0 -245 51.5t-164 127t-94 180t-46.5 192.5t-10.5 185q0 231 45.5 423.5 t163.5 372.5q217 84 551 84q156 0 387 -41zM229 698q4 -88 14.5 -159.5t38 -151.5t71.5 -133t120 -89t176 -36q223 0 336 73.5t113 278.5q0 190 -104.5 259t-348.5 69q-232 0 -416 -111z" />
<glyph unicode="7" horiz-adv-x="1161" d="M457 0h-203q236 616 655 1401h-848v160h1063l-32 -166q-289 -498 -635 -1395z" />
<glyph unicode="8" horiz-adv-x="1300" d="M1188 1188q0 -223 -258 -342q139 -70 223 -180.5t84 -255.5q0 -205 -144.5 -322t-422.5 -117q-82 0 -142.5 4.5t-156 29t-156.5 67.5t-107.5 130t-46.5 210q0 283 293 407q-131 59 -188 146.5t-57 214.5q0 236 142 321.5t427 85.5q252 0 381 -91t129 -308zM1057 434 q0 207 -283 346q-104 -14 -167.5 -25.5t-143.5 -38t-124 -59t-76 -89t-32 -132.5q0 -82 30 -141t70 -91t102.5 -49.5t109.5 -21.5t108 -4q406 0 406 305zM279 1174q0 -207 225 -297q293 55 377 90q137 78 143 213q0 131 -80 189t-252 58q-86 0 -150.5 -9t-129 -33.5 t-99 -77.5t-34.5 -133z" />
<glyph unicode="9" horiz-adv-x="1320" d="M117 25l20 155q184 -41 516 -41q125 0 203 11q190 195 223 538q-240 -104 -504 -104q-260 0 -387 115.5t-127 367.5q0 295 140.5 407.5t449.5 112.5q606 0 606 -741q0 -240 -87 -466t-203 -366q-141 -25 -385 -24q-315 0 -465 35zM653 737q223 0 434 117q0 127 -20 226.5 t-66.5 180t-132.5 123.5t-206 43q-211 0 -323 -75.5t-112 -278.5q0 -193 109.5 -264.5t316.5 -71.5z" />
<glyph unicode=":" horiz-adv-x="374" d="M102 240h170v-240h-170v240zM102 1010h170v-240h-170v240z" />
<glyph unicode=";" horiz-adv-x="468" d="M176 -303l-74 10q72 362 95 535l168 -19q-56 -286 -189 -526zM195 1010h172v-240h-172v240z" />
<glyph unicode="&#x3c;" horiz-adv-x="886" d="M784 1257v-137l-567 -352l567 -354v-135l-682 440v100z" />
<glyph unicode="=" horiz-adv-x="1173" d="M102 530v119h969v-119h-969zM102 934v117h969v-117h-969z" />
<glyph unicode="&#x3e;" horiz-adv-x="886" d="M102 1120v137l682 -438v-100l-682 -440v135l564 356z" />
<glyph unicode="?" horiz-adv-x="1079" d="M449 477h-160q-12 55 -13 111q0 68 14.5 122t47.5 92t61.5 62.5t78.5 45t77 28.5l80 23q113 29 166 90t53 166q0 145 -77 195t-247 50q-199 0 -448 -47l-21 158q236 45 474 45q250 0 370.5 -83t120.5 -282q0 -121 -32.5 -204.5t-84 -124.5t-114 -67t-125 -42 t-113.5 -36.5t-84 -63.5t-33 -111q1 -80 9 -127zM289 240h170v-240h-170v240z" />
<glyph unicode="@" horiz-adv-x="1515" d="M946 1139q197 0 320 -62q0 207 -96.5 324t-333.5 117q-190 0 -313.5 -56.5t-187 -177.5t-86 -268.5t-22.5 -370.5q0 -399 146.5 -574t533.5 -175q299 0 527 77l32 -123q-266 -90 -559 -90q-453 0 -637 206t-184 679q0 188 14.5 322.5t62.5 269.5t132 218t228.5 134 t344.5 51q266 0 395.5 -141t129.5 -360v-752q-78 -74 -211 -118t-267 -44q-365 0 -364 447q0 467 395 467zM915 336q106 0 205 27.5t146 74.5v527q-117 66 -320 65q-154 0 -210 -93t-56 -263q0 -70 9 -123t32.5 -105.5t72.5 -81t121 -28.5z" />
<glyph unicode="A" horiz-adv-x="1388" d="M1370 0h-188l-99 369h-776q-31 -102 -102 -369h-187q258 926 521 1561h313q278 -670 518 -1561zM647 1389q-145 -365 -297 -875h690q-135 467 -295 875h-98z" />
<glyph unicode="B" horiz-adv-x="1290" d="M102 0v1526q207 61 625 61q242 0 361.5 -101.5t119.5 -320.5q0 -115 -53 -214t-154 -132q248 -59 248 -334q0 -111 -33.5 -195.5t-99 -136t-135.5 -84t-172 -47t-178 -18.5t-182 -4h-347zM1077 471q0 45 -8 81t-19.5 62.5t-37 47t-45 34t-60.5 22.5t-67.5 13t-80.5 7 t-85 3h-96h-306v-585h324q481 0 481 315zM272 1389v-504h295q76 0 117 1t99.5 6t90 14t68.5 27.5t55.5 46.5t30.5 69t12 94q0 285 -313 284q-283 1 -455 -38z" />
<glyph unicode="C" horiz-adv-x="1316" d="M580 1587q385 0 665 -114l-37 -148q-291 104 -630 105q-119 0 -200 -98.5t-114 -237t-33 -303.5q0 -123 19.5 -237t60.5 -211t111 -155.5t160 -58.5q416 0 637 104l36 -145q-92 -47 -271 -82t-415 -35q-133 0 -234.5 72t-158.5 191.5t-86 261t-29 295.5q0 152 28 287.5 t86 253.5t162 186.5t243 68.5z" />
<glyph unicode="D" horiz-adv-x="1413" d="M102 0v1546q223 41 488 41q379 0 569.5 -194.5t190.5 -604.5q0 -147 -29 -264.5t-76 -198.5t-122.5 -141.5t-156.5 -95.5t-189.5 -55.5t-208 -26.5t-226.5 -6h-240zM274 1405v-1245q127 0 195 2t179.5 13t174 34.5t141 70t119.5 112t70 165.5t29 231q0 354 -154 496.5 t-455 142.5q-123 1 -299 -22z" />
<glyph unicode="E" horiz-adv-x="1216" d="M1128 1561v-160h-854v-512h822v-152h-822v-256q0 -240 156 -325h705v-156h-773q-260 111 -260 485v1076h1026z" />
<glyph unicode="F" horiz-adv-x="1155" d="M1094 1561v-160h-668q-82 -37 -116 -115t-34 -211v-219h775v-154h-775v-702h-174v1083q0 367 260 478h732z" />
<glyph unicode="G" horiz-adv-x="1398" d="M1245 1473l-37 -148q-285 102 -630 102q-90 0 -160 -55t-110 -148.5t-59.5 -203t-19.5 -229.5q0 -127 19.5 -239t62.5 -210t122 -155.5t185 -57.5q268 0 387 68.5t119 283.5v226h172v-222q0 -287 -162.5 -400.5t-515.5 -113.5q-158 0 -271.5 71t-172.5 193.5t-86 259 t-27 296.5q0 152 28 287.5t86 252.5t161.5 186.5t243.5 69.5q384 1 665 -114z" />
<glyph unicode="H" horiz-adv-x="1421" d="M1319 0h-174v729h-869v-729h-174v1561h174v-680h869v680h174v-1561z" />
<glyph unicode="I" horiz-adv-x="378" d="M102 1561h172v-1561h-172v1561z" />
<glyph unicode="J" horiz-adv-x="1007" d="M31 10l18 156q147 -23 422 -23q158 0 209 87t51 331v1000h174v-1049q0 -160 -29.5 -266.5t-91 -161.5t-135.5 -76.5t-178 -21.5q-280 -1 -440 24z" />
<glyph unicode="K" horiz-adv-x="1255" d="M1245 0h-207q-197 389 -475 758h-289v-758h-172v1561h172v-654h279q270 326 440 654h199q-229 -389 -496 -707q285 -356 549 -854z" />
<glyph unicode="L" horiz-adv-x="1005" d="M102 1561h172v-1106q0 -311 263 -312q270 0 417 23l21 -156q-164 -25 -438 -24q-104 0 -178 21.5t-135.5 76.5t-91.5 161.5t-30 266.5v1049z" />
<glyph unicode="M" horiz-adv-x="1798" d="M1733 0h-177l-59 1380h-57l-396 -1380h-292l-402 1380h-57l-53 -1380h-174l81 1561h322l401 -1381h56l395 1381h321z" />
<glyph unicode="N" horiz-adv-x="1429" d="M1171 1561h156v-1561h-303l-723 1380h-43v-1380h-156v1561h304l722 -1393h43v1393z" />
<glyph unicode="O" horiz-adv-x="1478" d="M1417 788q0 -430 -173 -623.5t-505 -193.5q-369 0 -523.5 187.5t-154.5 611.5q0 430 173.5 623.5t504.5 193.5q369 0 523.5 -187.5t154.5 -611.5zM231 770q0 -360 115 -499.5t393 -139.5q254 0 382 154.5t128 502.5q0 360 -115.5 499.5t-394.5 139.5q-252 0 -380 -154.5 t-128 -502.5z" />
<glyph unicode="P" horiz-adv-x="1290" d="M678 606h-404v-606h-172v1526q223 61 621 61q516 0 516 -485q0 -287 -117.5 -391.5t-443.5 -104.5zM274 1389v-635h400q223 0 310 65.5t87 270.5q0 172 -90 254.5t-250 82.5q-258 1 -457 -38z" />
<glyph unicode="Q" horiz-adv-x="1478" d="M1417 793q0 -584 -336 -746l279 -289l-123 -63l-354 293q-68 -12 -144 -13q-369 0 -523.5 187.5t-154.5 611.5q0 430 173.5 623.5t504.5 193.5q369 0 523.5 -188t154.5 -610zM231 774q0 -360 115 -499.5t393 -139.5q254 0 382 154.5t128 503.5q0 360 -115.5 499.5 t-394.5 139.5q-252 0 -380 -155t-128 -503z" />
<glyph unicode="R" horiz-adv-x="1286" d="M1253 0h-198q-115 373 -357 668q-43 -2 -137 -2h-287v-666h-172v1526q215 61 598 61q117 0 200 -16.5t155.5 -60.5t109.5 -130t37 -215q0 -213 -77.5 -328.5t-252.5 -146.5q234 -260 381 -690zM274 1389v-576h365q215 0 305 70.5t90 246.5q0 160 -78.5 228.5t-240.5 68.5 q-277 1 -441 -38z" />
<glyph unicode="S" horiz-adv-x="1183" d="M72 -4l18 168q223 -35 430 -35q96 0 166 11.5t133.5 41t96 92t32.5 154.5q0 172 -68.5 227.5t-295.5 87.5q-82 12 -138.5 23.5t-135.5 42.5t-128 71t-85 110.5t-36 160.5v289q211 147 564 147q227 0 432 -28l-10 -160q-211 31 -433 31q-238 0 -387 -82v-205 q0 -49 20.5 -86t44 -56.5t71 -37t73.5 -22.5l80 -15l115 -20q78 -13 121 -21t97 -22.5t89 -31.5q184 -86 184 -415q0 -135 -43 -225.5t-128 -136.5t-186 -64.5t-245 -18.5q-223 0 -448 25z" />
<glyph unicode="T" horiz-adv-x="1155" d="M668 0h-172v1401h-476v160h1115v-160h-467v-1401z" />
<glyph unicode="U" horiz-adv-x="1382" d="M102 1561h172v-1162q0 -147 89.5 -208.5t345.5 -61.5q238 0 399 129v1303h172v-1368q-76 -104 -226.5 -163t-344.5 -59q-305 0 -456 88t-151 324v1178z" />
<glyph unicode="V" horiz-adv-x="1388" d="M18 1561h189q205 -801 436 -1389h98q221 559 443 1389h186q-258 -926 -520 -1561h-313q-279 670 -519 1561z" />
<glyph unicode="W" horiz-adv-x="1943" d="M18 1561h183q135 -836 280 -1381h60q150 539 307 1381h256q141 -807 305 -1381h61q137 528 277 1381h178q-150 -864 -338 -1561h-284q-176 614 -310 1382h-32q-127 -764 -304 -1382h-301q-195 713 -338 1561z" />
<glyph unicode="X" horiz-adv-x="1458" d="M231 0h-211l607 825l-535 736h217l418 -588l420 588h215l-531 -730l607 -831h-217l-494 690z" />
<glyph unicode="Y" horiz-adv-x="1265" d="M676 0h-189q164 305 250 553h-368q-195 430 -353 1008h193q127 -504 272 -856h310q139 371 266 856h190q-229 -820 -571 -1561z" />
<glyph unicode="Z" horiz-adv-x="1185" d="M1145 158v-158h-1084l23 143l786 1256h-798v162h1024l-27 -144l-780 -1259h856z" />
<glyph unicode="[" horiz-adv-x="575" d="M471 1737v-111h-250v-1769h250v-109h-369v1989h369z" />
<glyph unicode="\" horiz-adv-x="829" d="M29 1610h129l635 -1659h-127z" />
<glyph unicode="]" horiz-adv-x="573" d="M113 1626v111h358v-1989h-369v109h246v1769h-235z" />
<glyph unicode="^" horiz-adv-x="1085" d="M983 737h-158l-282 656l-289 -656h-152l375 822h127z" />
<glyph unicode="_" horiz-adv-x="1118" d="M1120 -158v-102h-1122v102h1122z" />
<glyph unicode="`" horiz-adv-x="718" d="M614 1364l-24 -92l-488 147l39 133z" />
<glyph unicode="a" d="M350 657q170 33 389 33q57 0 123 -4v150q0 188 -184 188q-268 0 -528 -59l-27 131q301 72 557 71q182 0 264 -88t82 -264v-612q-276 -231 -631 -232q-160 0 -247 94.5t-87 243.5q0 291 289 348zM414 115q240 0 448 147v307q-66 4 -114 4q-190 0 -342 -30 q-178 -37 -179 -224q0 -100 50.5 -152t136.5 -52z" />
<glyph unicode="b" d="M102 1620h170v-535q156 82 398 82q211 0 304 -162.5t93 -414.5q0 -125 -25.5 -231.5t-80 -195.5t-154.5 -140.5t-236 -51.5q-223 0 -469 49v1600zM653 1022q-213 0 -385 -88v-791q139 -33 303 -32q174 0 253 130t79 343q0 203 -61.5 320.5t-188.5 117.5z" />
<glyph unicode="c" horiz-adv-x="1044" d="M541 1167q248 0 409 -96l-32 -127q-147 82 -381 82q-109 0 -182.5 -70.5t-101.5 -168t-28 -214.5q0 -186 77 -322t235 -136q227 0 393 92l33 -125q-150 -111 -435 -111q-127 0 -221 55.5t-145 147.5t-76 192.5t-25 207t24 205t76 189.5t149.5 145t230.5 54z" />
<glyph unicode="d" horiz-adv-x="1138" d="M477 1167q207 0 393 -82v535h166v-1436q-238 -213 -587 -213q-92 0 -163 37t-113 95.5t-67.5 138.5t-35 154.5t-9.5 156.5q0 121 19.5 223.5t64.5 193.5t130 144t202 53zM463 115q123 0 231.5 36.5t175.5 98.5v692q-164 82 -329 82q-178 0 -246 -122t-68 -347 q0 -440 236 -440z" />
<glyph unicode="e" horiz-adv-x="1118" d="M1057 524h-830q6 -233 70.5 -321t247.5 -88q193 0 442 100l29 -129q-262 -115 -481 -115q-150 0 -246 39t-144.5 121t-66 179.5t-17.5 244.5q0 326 62 539q184 74 493 73q242 0 341.5 -128t99.5 -386v-129zM227 645h664q0 201 -54.5 290t-220.5 89q-207 0 -352 -37 q-35 -133 -37 -342z" />
<glyph unicode="f" horiz-adv-x="638" d="M616 1137v-125h-352v-1012h-168v1012h-73v69l73 56v221q0 283 375 282q121 0 188 -28l-22 -121q-96 20 -137 20q-111 0 -173.5 -40.5t-62.5 -149.5v-184h352z" />
<glyph unicode="g" d="M555 1167q225 0 471 -49v-1145q0 -217 -128 -304t-378 -87q-236 0 -362 76l10 139q162 -72 330 -71q190 0 275 55t85 205v196q-150 -88 -399 -88q-397 0 -398 514q0 244 117 401.5t377 157.5zM475 238q221 0 385 94v659q-150 35 -305 35q-330 0 -330 -410 q0 -378 250 -378z" />
<glyph unicode="h" horiz-adv-x="1155" d="M102 1620h168v-573q242 121 471 120q160 0 235 -88t75 -239v-840h-168v860q0 72 -45 118t-119 46q-109 0 -234 -36t-215 -87v-901h-168v1620z" />
<glyph unicode="i" horiz-adv-x="374" d="M102 1137h168v-1137h-168v1137zM102 1620h170v-242h-170v242z" />
<glyph unicode="j" horiz-adv-x="456" d="M-139 -399l10 127q96 -14 170 -15q143 0 143 154v1270h168v-1297q0 -131 -68.5 -194.5t-220.5 -63.5q-91 1 -202 19zM182 1620h170v-242h-170v242z" />
<glyph unicode="k" horiz-adv-x="1058" d="M1057 0h-199q-154 328 -371 561h-217v-561h-168v1620h168v-944h209q209 199 336 461h193q-152 -283 -381 -496q233 -276 430 -641z" />
<glyph unicode="l" horiz-adv-x="374" d="M102 1620h168v-1620h-168v1620z" />
<glyph unicode="m" horiz-adv-x="1796" d="M989 0h-170v764q0 68 -3 104.5t-16.5 77.5t-45 59.5t-82.5 18.5q-209 0 -402 -111v-913h-168v987q309 180 592 180q86 0 148.5 -36.5t89.5 -94.5q229 131 469 131q152 0 222.5 -88t70.5 -239v-840h-168v764q0 66 -4 104.5t-17.5 78.5t-44 58.5t-82.5 18.5 q-207 0 -397 -106q8 -63 8 -150v-768z" />
<glyph unicode="n" horiz-adv-x="1185" d="M1083 0h-168v745q0 57 -1 85t-9 73t-24.5 65.5t-49 38t-79.5 17.5q-254 0 -482 -111v-913h-168v987q326 180 672 180q160 0 234.5 -88t74.5 -239v-840z" />
<glyph unicode="o" horiz-adv-x="1189" d="M61 563q0 313 141.5 458.5t391.5 145.5q276 0 405 -142t129 -452q0 -313 -142 -457.5t-392 -144.5q-276 0 -404.5 142.5t-128.5 449.5zM963 573q0 254 -86 353.5t-283 99.5q-367 0 -367 -463q0 -252 85 -350t282 -98q369 -1 369 458z" />
<glyph unicode="p" horiz-adv-x="1138" d="M659 -29q-231 0 -393 74v-451h-164v1358q236 215 586 215q115 0 196 -54t120.5 -146.5t56 -184.5t16.5 -198q0 -121 -19.5 -222.5t-64.5 -193.5t-130 -144.5t-204 -52.5zM266 889v-699q141 -76 330 -75q178 0 246.5 120.5t68.5 346.5q0 442 -237 442q-123 0 -231.5 -37 t-176.5 -98z" />
<glyph unicode="q" d="M1026 -406h-170v467q-145 -90 -399 -90q-111 0 -191 48.5t-123 132.5t-62.5 181t-19.5 214q0 125 26 231.5t80 196.5t153.5 141t234.5 51q227 0 471 -51v-1522zM475 115q227 0 385 96v780q-143 33 -305 33q-174 0 -253 -129t-79 -342q0 -199 61.5 -318.5t190.5 -119.5z " />
<glyph unicode="r" horiz-adv-x="694" d="M672 1149v-143q-248 -18 -402 -93v-913h-168v991q251 135 570 158z" />
<glyph unicode="s" horiz-adv-x="999" d="M72 10l14 146q154 -41 342 -41q63 0 111.5 7t100.5 26.5t81 65.5t29 116q0 74 -34 105.5t-93 43.5q-25 6 -111 20.5t-145 26.5q-92 16 -174 71.5t-105 133.5q-27 94 -27 293q70 59 191 101t270 42q193 0 344 -47l-10 -145q-158 49 -334 49q-188 0 -293 -74q0 -53 3.5 -86 t13.5 -72.5t35.5 -64.5t66.5 -37q43 -12 93.5 -22.5t118 -21.5t104.5 -19q274 -57 274 -301q0 -354 -502 -355q-198 0 -364 39z" />
<glyph unicode="t" horiz-adv-x="628" d="M584 1137v-125h-314v-785q0 -123 109 -123q102 0 192 56l29 -117q-111 -72 -254 -72q-246 0 -246 215v826h-75v71l75 54v270h170v-270h314z" />
<glyph unicode="u" horiz-adv-x="1167" d="M102 1137h166v-858q0 -78 44 -121t122 -43q242 0 461 110v912h170v-987q-328 -178 -653 -179q-309 0 -310 328v838z" />
<glyph unicode="v" horiz-adv-x="1134" d="M18 1137h183q168 -623 319 -983h94q166 393 322 983h178q-195 -680 -389 -1137h-313q-201 459 -394 1137z" />
<glyph unicode="w" horiz-adv-x="1720" d="M18 1137h181q102 -555 241 -967h41q141 391 258 967h250q113 -547 254 -967h41q133 399 246 967h172q-137 -625 -309 -1137h-252q-154 465 -254 975h-39q-115 -555 -258 -975h-264q-167 478 -308 1137z" />
<glyph unicode="x" horiz-adv-x="1103" d="M190 0h-196l455 604l-394 533h203l285 -402l297 402h196l-397 -523l465 -614h-209l-352 494z" />
<glyph unicode="y" horiz-adv-x="1095" d="M201 1137q66 -469 161 -893h293q125 324 250 893h176q-43 -193 -78.5 -330t-97 -332.5t-125 -342t-156 -301.5t-198.5 -265l-117 84q160 170 283 444h-352q-139 524 -222 1043h183z" />
<glyph unicode="z" horiz-adv-x="974" d="M948 139v-139h-921l22 113l641 882h-637v142h871l-31 -115l-641 -883h696z" />
<glyph unicode="{" horiz-adv-x="632" d="M518 1737v-111q-102 0 -142 -61.5t-40 -239.5v-274q0 -211 -92 -295q92 -98 92 -281v-342q0 -154 45 -214t137 -62v-109h-55q-96 0 -170 74t-74 237v426q0 164 -63 228h-54v100h54q63 59 63 215v379q0 154 67.5 242t172.5 88h59z" />
<glyph unicode="|" horiz-adv-x="319" d="M102 1733h115v-2016h-115v2016z" />
<glyph unicode="}" horiz-adv-x="632" d="M102 1626v111h60q104 0 171.5 -88t67.5 -242v-379q0 -156 64 -215h53v-100h-53q-63 -63 -64 -228v-426q0 -164 -73.5 -237.5t-169.5 -73.5h-56v109q92 2 137.5 62.5t45.5 213.5v342q0 182 92 281q-92 84 -92 295v274q0 178 -40.5 239.5t-142.5 61.5z" />
<glyph unicode="~" horiz-adv-x="1173" d="M102 598v141q104 111 240 111q92 0 243.5 -57.5t221.5 -57.5q135 0 262 125v-139q-111 -104 -256 -105q-82 0 -232.5 56.5t-230.5 56.5q-131 0 -248 -131z" />
<glyph unicode="&#xa1;" horiz-adv-x="411" d="M307 -434h-205l29 1120h148zM289 926h-170v239h170v-239z" />
<glyph unicode="&#xa2;" horiz-adv-x="1064" d="M602 0h-104v197q-156 8 -258.5 107t-140.5 225t-38 270q0 102 21.5 196.5t70 183.5t136.5 146t209 66v170h104v-170q203 -8 348 -95l-32 -129q-145 82 -381 82q-84 0 -146.5 -40t-97.5 -106.5t-52.5 -143t-17.5 -160.5q0 -186 79 -322.5t235 -136.5q227 0 393 92l33 -127 q-133 -94 -361 -106v-199z" />
<glyph unicode="&#xa3;" horiz-adv-x="1390" d="M49 -66v175q72 74 158 108q49 102 49 211q0 94 -49 234h-168v153h106q-57 143 -57 268q0 252 128 378t413 126q385 0 665 -114l-37 -148q-291 102 -630 102q-190 0 -279.5 -79.5t-89.5 -264.5q0 -115 66 -268h729v-153h-672q41 -123 41 -197q0 -117 -51 -227q41 4 63 4 q96 0 278.5 -51.5t274.5 -51.5q178 0 354 154v-172q-152 -129 -360 -129q-104 0 -301 54t-291 54q-174 0 -340 -166z" />
<glyph unicode="&#xa5;" horiz-adv-x="1290" d="M31 1561h188l387 -703h88l377 703h189l-408 -705h330v-154h-453v-702h-174v702h-451v154h330z" />
<glyph unicode="&#xa6;" horiz-adv-x="319" d="M102 504h115v-787h-115v787zM102 1733h115v-715h-115v715z" />
<glyph unicode="&#xa7;" horiz-adv-x="1060" d="M141 -82v145q170 -41 346 -40q66 0 115 6t100.5 24.5t79 60.5t27.5 103q0 72 -42 111t-103 49q-10 2 -149.5 23.5t-219.5 56.5q-240 100 -268 475q29 29 105.5 55.5t154.5 32.5q-168 80 -168 270q0 309 467 309q199 0 366 -38v-148q-160 41 -346 41q-90 0 -153.5 -10 t-116.5 -54t-53 -122q0 -86 50 -129t118.5 -51.5t183.5 -30t201 -60.5q119 -53 172 -163.5t61 -286.5q-27 -29 -102.5 -57.5t-153.5 -38.5q162 -96 162 -254q0 -315 -467 -316q-197 0 -367 37zM909 612q-8 88 -38.5 147.5t-67.5 90.5t-106.5 47t-124 19.5t-152.5 3.5 q-70 0 -139.5 -18.5t-96.5 -37.5q10 -170 128 -244.5t300 -74.5q74 0 171 22t126 45z" />
<glyph unicode="&#xa8;" horiz-adv-x="731" d="M487 1520h142v-195h-142v195zM102 1520h140v-195h-140v195z" />
<glyph unicode="&#xa9;" horiz-adv-x="1478" d="M1417 788q0 -430 -173 -623.5t-505 -193.5q-369 0 -523.5 187.5t-154.5 611.5q0 430 173.5 623.5t504.5 193.5q369 0 523.5 -187.5t154.5 -611.5zM180 768q0 -270 58.5 -420.5t176 -210t324.5 -59.5q281 0 420 165t139 548q0 270 -58 420.5t-176 210t-325 59.5 q-279 0 -419 -165t-140 -548zM723 1174q158 0 270 -64l-20 -86q-98 53 -252 53q-104 0 -154.5 -88t-50.5 -209t51 -211t154 -90q154 0 260 62l23 -86q-102 -72 -289 -72q-84 0 -146.5 37t-96.5 97.5t-50 127t-16 135.5q0 72 15 136.5t50 125t99.5 96.5t152.5 36z" />
<glyph unicode="&#xaa;" horiz-adv-x="933" d="M614 1171q49 0 111 -4v115q0 147 -147 148q-219 0 -441 -50l-22 113q229 68 463 68q156 0 225 -73t69 -222v-502q-227 -195 -528 -195q-133 0 -208 80t-75 205q0 66 18.5 116t46.5 82.5t76 56.5t88 36t105.5 18t107 7t111.5 1zM358 700q209 0 367 119v238q-70 4 -115 4 q-90 0 -147 -5t-122 -23.5t-97.5 -61.5t-32.5 -109q0 -78 39.5 -120t107.5 -42z" />
<glyph unicode="&#xab;" horiz-adv-x="892" d="M780 913l51 -65l-288 -246l288 -248l-51 -65l-329 282v58zM391 913l51 -65l-288 -246l288 -248l-51 -65l-330 282v58z" />
<glyph unicode="&#xad;" horiz-adv-x="761" d="M659 666v-154h-557v154h557z" />
<glyph unicode="&#xae;" horiz-adv-x="1134" d="M1047 995q0 -313 -126 -454.5t-370 -141.5q-272 0 -384 137.5t-112 444.5q0 315 126 456.5t370 141.5q272 0 384 -137.5t112 -446.5zM946 997q0 283 -89 386.5t-306 103.5q-197 0 -297 -118t-100 -388q0 -281 89 -385t308 -104q197 0 296 116.5t99 388.5zM784 711h-98 q-35 86 -125 237q-12 -2 -37 -2h-86v-235h-88v557q76 25 225 24q94 0 140.5 -30.5t46.5 -131.5q0 -147 -111 -174q70 -106 133 -245zM438 1200v-178h109q72 0 101.5 23.5t29.5 74.5q0 92 -100 92q-91 0 -140 -12z" />
<glyph unicode="&#xb0;" horiz-adv-x="823" d="M410 1479q-213 0 -213 -228q0 -231 213 -231q109 0 163 60.5t54 169t-54 169t-163 60.5zM410 1573q158 0 234.5 -85t76.5 -238.5t-77 -239.5t-234 -86q-154 0 -231 86t-77 239.5t77 238.5t231 85z" />
<glyph unicode="&#xb2;" horiz-adv-x="827" d="M723 690l4 -127q-135 -23 -285 -22q-250 0 -381 102v180q0 45 10.5 84t25 64.5t43 49t48 37t60.5 28t61.5 20.5t67.5 17.5t61 15.5q92 25 140.5 67.5t48.5 124.5q0 113 -224 113q-147 0 -276 -25l-12 131q141 20 288 21q176 0 269.5 -50.5t93.5 -193.5q0 -78 -26.5 -136 t-75 -91t-92.5 -50.5t-99 -29.5q-150 -33 -214 -74t-64 -127v-106q88 -45 286 -45q103 -1 242 22z" />
<glyph unicode="&#xb3;" horiz-adv-x="837" d="M150 1014v121h266q115 0 158.5 28.5t43.5 108.5q0 104 -58 139t-200 35q-84 0 -247 -27l-11 125q139 27 311.5 27t253.5 -63.5t81 -229.5q0 -137 -111 -199q139 -45 139 -221q0 -172 -79 -245.5t-267 -73.5q-231 0 -369 41l27 122q137 -35 324 -34q121 0 174 41t53 157 q0 94 -50 121t-171 27h-268z" />
<glyph unicode="&#xb4;" horiz-adv-x="718" d="M127 1274l-25 92l473 186l39 -131z" />
<glyph unicode="&#xb5;" horiz-adv-x="1124" d="M1108 -10l-41 -105q-178 53 -201 219q-61 -59 -160.5 -96t-213.5 -37q-137 0 -232 56v-377h-158v1487h158v-924q39 -98 240 -98q129 0 224 47t134 143v832h160v-1016q0 -94 90 -131z" />
<glyph unicode="&#xb6;" horiz-adv-x="1054" d="M369 1100q-88 4 -190.5 32.5t-133.5 75.5q0 166 96.5 258.5t296.5 92.5h555l-41 -201v-1358h-168v1100h-243v-1100h-172v1100z" />
<glyph unicode="&#xb7;" horiz-adv-x="292" d="M61 805h170v-240h-170v240z" />
<glyph unicode="&#xb8;" horiz-adv-x="442" d="M186 -438l-63 24q55 219 67 308l9 131h159l-12 -138q-60 -163 -160 -325z" />
<glyph unicode="&#xb9;" horiz-adv-x="444" d="M381 561h-133v840q-10 18 -25 24l-139 -39l-23 127l197 54q100 -27 123 -113v-893z" />
<glyph unicode="&#xba;" horiz-adv-x="1007" d="M61 1061q0 502 445 502q227 0 333.5 -118t106.5 -376q0 -496 -440 -496q-229 0 -337 117t-108 371zM799 1069q0 205 -67.5 285t-225.5 80q-295 0 -295 -373q0 -201 68.5 -278.5t226.5 -77.5q293 -1 293 364z" />
<glyph unicode="&#xbb;" horiz-adv-x="892" d="M61 846l52 67l329 -284v-56l-329 -284l-52 63l287 248zM451 846l51 67l329 -284v-56l-329 -284l-51 63l286 248z" />
<glyph unicode="&#xbc;" horiz-adv-x="2031" d="M1927 0h-133v254q-82 -8 -252 -8q-160 0 -239.5 71.5t-79.5 272.5v403h137v-366q0 -145 38 -200.5t144 -55.5q195 0 252 8v614h133v-993zM1268 1561h155l-868 -1561h-152zM422 561h-133v840q-10 18 -25 24l-139 -39l-23 127l197 54q100 -27 123 -113v-893z" />
<glyph unicode="&#xbd;" horiz-adv-x="2048" d="M1901 125l4 -127q-135 -23 -285 -23q-250 0 -381 103v180q0 96 42 159.5t104.5 88t136 47t136 39t104.5 60.5t42 114q0 113 -223 113q-147 0 -276 -25l-13 131q141 20 289 21q176 0 269.5 -50.5t93.5 -193.5q0 -78 -27 -136.5t-75 -91t-92 -50t-99 -29.5 q-150 -33 -214.5 -74t-64.5 -127v-107q88 -45 287 -45q103 0 242 23zM422 561h-133v840q-10 18 -25 24l-139 -39l-23 127l197 54q100 -27 123 -113v-893zM1272 1561h155l-866 -1561h-153z" />
<glyph unicode="&#xbe;" horiz-adv-x="2193" d="M190 1014v121h267q115 0 158.5 28.5t43.5 108.5q0 104 -58 139t-200 35q-84 0 -247 -27l-11 125q139 27 311.5 27t253 -63.5t80.5 -229.5q0 -137 -110 -199q139 -45 139 -221q0 -172 -79 -245.5t-267 -73.5q-231 0 -369 41l27 122q137 -35 324 -34q121 0 174 41t53 157 q0 94 -50 121t-171 27h-269zM2089 0h-133v254q-82 -8 -252 -8q-160 0 -240 71.5t-80 272.5v403h136v-366q0 -143 38.5 -199.5t145.5 -56.5q195 0 252 8v614h133v-993zM1430 1561h155l-868 -1561h-154z" />
<glyph unicode="&#xbf;" horiz-adv-x="1046" d="M633 705h160q12 -55 12 -111q0 -68 -14.5 -122t-47 -92t-60.5 -62.5t-79 -45t-76.5 -28.5t-78.5 -23q-115 -31 -168.5 -91t-53.5 -163q0 -145 77 -195.5t247 -50.5q199 0 448 48l23 -158q-221 -45 -475 -45q-248 0 -369 83t-121 281q0 119 32 203t84 125t113.5 66.5 t124 42t115 37t84 63.5t31.5 111q0 92 -8 127zM795 930h-172v239h172v-239z" />
<glyph unicode="&#xc0;" horiz-adv-x="1388" d="M1370 0h-188l-99 369h-776q-31 -102 -102 -369h-187q258 926 521 1561h313q278 -670 518 -1561zM647 1389q-145 -365 -297 -875h690q-135 467 -295 875h-98zM899 1788l-25 -92l-487 147l39 133z" />
<glyph unicode="&#xc1;" horiz-adv-x="1388" d="M1370 0h-188l-99 369h-776q-31 -102 -102 -369h-187q258 926 521 1561h313q278 -670 518 -1561zM647 1389q-145 -365 -297 -875h690q-135 467 -295 875h-98zM508 1698l-25 92l473 186l39 -131z" />
<glyph unicode="&#xc2;" horiz-adv-x="1388" d="M1370 0h-188l-99 369h-776q-31 -102 -102 -369h-187q258 926 521 1561h313q278 -670 518 -1561zM647 1389q-145 -365 -297 -875h690q-135 467 -295 875h-98zM1018 1763l-64 -63l-264 211l-260 -211l-61 63l266 242h110z" />
<glyph unicode="&#xc3;" horiz-adv-x="1388" d="M1370 0h-188l-99 369h-776q-31 -102 -102 -369h-187q258 926 521 1561h313q278 -670 518 -1561zM647 1389q-145 -365 -297 -875h690q-135 467 -295 875h-98zM543 1829q-76 0 -129 -62l-37 84q55 82 153 82q68 0 164.5 -33.5t139.5 -33.5q78 0 137 57l37 -76 q-55 -84 -164 -84q-59 0 -154.5 33t-146.5 33z" />
<glyph unicode="&#xc4;" horiz-adv-x="1388" d="M1370 0h-188l-99 369h-776q-31 -102 -102 -369h-187q258 926 521 1561h313q278 -670 518 -1561zM647 1389q-145 -365 -297 -875h690q-135 467 -295 875h-98zM813 1944h141v-195h-141v195zM428 1944h139v-195h-139v195z" />
<glyph unicode="&#xc5;" horiz-adv-x="1388" d="M1370 0h-188l-99 369h-776q-31 -102 -102 -369h-187q248 889 506 1526q-49 23 -64.5 73t-15.5 146v16q0 137 53.5 178t211.5 41q147 0 190 -51t43 -190v-17q0 -156 -78 -194q264 -637 506 -1528zM647 1389q-145 -365 -297 -875h690q-135 467 -295 875h-98zM686 1587 q106 0 136 25.5t30 120.5v10q0 98 -29.5 124.5t-124.5 26.5q-104 0 -135 -26.5t-31 -116.5v-10q0 -98 30 -126t124 -28z" />
<glyph unicode="&#xc6;" horiz-adv-x="1945" d="M1825 887v-154h-760v-303q16 -199 152 -274h647v-156h-715q-213 90 -250 367h-602l-94 -367h-185q178 702 463 1561h1377v-160h-793v-514h760zM592 1389q-137 -430 -258 -877h557v877h-299z" />
<glyph unicode="&#xc7;" horiz-adv-x="1316" d="M631 -438l-66 24q35 131 62 273l10 114q-84 0 -137 11q-117 20 -204 97t-137 192.5t-74 244.5t-24 273q0 152 28 287.5t86 252.5t161.5 186.5t243.5 69.5q385 0 665 -114l-37 -148q-285 102 -630 102q-90 0 -160 -55t-110 -148.5t-59.5 -203t-19.5 -229.5 q0 -170 34 -314.5t116 -246t201 -101.5q414 0 639 102l36 -143q-166 -82 -456 -104l-11 -97q-61 -171 -157 -325z" />
<glyph unicode="&#xc8;" horiz-adv-x="1216" d="M1128 1561v-160h-854v-512h822v-152h-822v-256q0 -240 156 -325h705v-156h-773q-260 111 -260 485v1076h1026zM870 1788l-24 -92l-488 147l39 133z" />
<glyph unicode="&#xc9;" horiz-adv-x="1216" d="M1128 1561v-160h-854v-512h822v-152h-822v-256q0 -240 156 -325h705v-156h-773q-260 111 -260 485v1076h1026zM436 1698l-24 92l473 186l39 -131z" />
<glyph unicode="&#xca;" horiz-adv-x="1216" d="M1128 1561v-160h-854v-512h822v-152h-822v-256q0 -240 156 -325h705v-156h-773q-260 111 -260 485v1076h1026zM973 1763l-64 -63l-264 211l-260 -211l-61 63l266 242h110z" />
<glyph unicode="&#xcb;" horiz-adv-x="1216" d="M1128 1561v-160h-854v-512h822v-152h-822v-256q0 -240 156 -325h705v-156h-773q-260 111 -260 485v1076h1026zM768 1944h141v-195h-141v195zM383 1944h139v-195h-139v195z" />
<glyph unicode="&#xcc;" horiz-adv-x="378" d="M102 1561h172v-1561h-172v1561zM397 1788l-24 -92l-488 147l39 133z" />
<glyph unicode="&#xcd;" horiz-adv-x="378" d="M102 1561h172v-1561h-172v1561zM6 1698l-24 92l473 186l39 -131z" />
<glyph unicode="&#xce;" horiz-adv-x="378" d="M102 1561h172v-1561h-172v1561zM516 1763l-63 -63l-265 211l-260 -211l-61 63l266 242h111z" />
<glyph unicode="&#xcf;" horiz-adv-x="378" d="M102 1561h172v-1561h-172v1561zM311 1944h142v-195h-142v195zM-74 1944h140v-195h-140v195z" />
<glyph unicode="&#xd0;" horiz-adv-x="1413" d="M102 0v1546q223 41 488 41q379 0 569.5 -194.5t190.5 -604.5q0 -147 -29 -264.5t-76 -198.5t-122.5 -141.5t-156.5 -95.5t-189.5 -55.5t-208 -26.5t-226.5 -6h-240zM274 1405v-514l488 -68v-73l-488 -70v-520q127 0 195 2t180.5 13t175 34.5t140 69t118.5 111t70 166.5 t29 232q0 193 -44 321t-134.5 195.5t-204 94t-279.5 26.5q-45 0 -246 -20z" />
<glyph unicode="&#xd1;" horiz-adv-x="1429" d="M1171 1561h156v-1561h-303l-723 1380h-43v-1380h-156v1561h304l722 -1393h43v1393zM563 1829q-76 0 -129 -62l-37 84q55 82 154 82q68 0 164 -33.5t139 -33.5q78 0 137 57l37 -76q-55 -84 -164 -84q-59 0 -154.5 33t-146.5 33z" />
<glyph unicode="&#xd2;" horiz-adv-x="1478" d="M1417 788q0 -430 -173 -623.5t-505 -193.5q-369 0 -523.5 187.5t-154.5 611.5q0 430 173.5 623.5t504.5 193.5q369 0 523.5 -187.5t154.5 -611.5zM231 770q0 -360 115 -499.5t393 -139.5q254 0 382 154.5t128 502.5q0 360 -115.5 499.5t-394.5 139.5q-252 0 -380 -154.5 t-128 -502.5zM946 1788l-24 -92l-488 147l39 133z" />
<glyph unicode="&#xd3;" horiz-adv-x="1478" d="M1417 788q0 -430 -173 -623.5t-505 -193.5q-369 0 -523.5 187.5t-154.5 611.5q0 430 173.5 623.5t504.5 193.5q369 0 523.5 -187.5t154.5 -611.5zM231 770q0 -360 115 -499.5t393 -139.5q254 0 382 154.5t128 502.5q0 360 -115.5 499.5t-394.5 139.5q-252 0 -380 -154.5 t-128 -502.5zM553 1698l-25 92l473 186l39 -131z" />
<glyph unicode="&#xd4;" horiz-adv-x="1478" d="M1417 788q0 -430 -173 -623.5t-505 -193.5q-369 0 -523.5 187.5t-154.5 611.5q0 430 173.5 623.5t504.5 193.5q369 0 523.5 -187.5t154.5 -611.5zM231 770q0 -360 115 -499.5t393 -139.5q254 0 382 154.5t128 502.5q0 360 -115.5 499.5t-394.5 139.5q-252 0 -380 -154.5 t-128 -502.5zM1063 1763l-64 -63l-264 211l-260 -211l-61 63l266 242h111z" />
<glyph unicode="&#xd5;" horiz-adv-x="1478" d="M1417 788q0 -430 -173 -623.5t-505 -193.5q-369 0 -523.5 187.5t-154.5 611.5q0 430 173.5 623.5t504.5 193.5q369 0 523.5 -187.5t154.5 -611.5zM231 770q0 -360 115 -499.5t393 -139.5q254 0 382 154.5t128 502.5q0 360 -115.5 499.5t-394.5 139.5q-252 0 -380 -154.5 t-128 -502.5zM588 1829q-76 0 -129 -62l-37 84q55 82 153 82q68 0 164.5 -33.5t139.5 -33.5q78 0 137 57l37 -76q-55 -84 -164 -84q-59 0 -154.5 33t-146.5 33z" />
<glyph unicode="&#xd6;" horiz-adv-x="1478" d="M1417 788q0 -430 -173 -623.5t-505 -193.5q-369 0 -523.5 187.5t-154.5 611.5q0 430 173.5 623.5t504.5 193.5q369 0 523.5 -187.5t154.5 -611.5zM231 770q0 -360 115 -499.5t393 -139.5q254 0 382 154.5t128 502.5q0 360 -115.5 499.5t-394.5 139.5q-252 0 -380 -154.5 t-128 -502.5zM858 1944h141v-195h-141v195zM473 1944h139v-195h-139v195z" />
<glyph unicode="&#xd7;" horiz-adv-x="968" d="M776 1161l90 -90l-295 -295l287 -289l-82 -81l-289 286l-294 -295l-91 90l295 297l-288 289l81 82l291 -289z" />
<glyph unicode="&#xd8;" horiz-adv-x="1478" d="M498 -2l-60 -145l-108 41l57 139q-174 76 -250 254t-76 483q0 430 173.5 623.5t504.5 193.5q123 0 236 -26l45 118l115 -32l-48 -121q174 -76 252 -255t78 -483q0 -430 -173 -623.5t-505 -193.5q-128 0 -241 27zM1247 788q0 242 -52 381.5t-169 198.5l-471 -1221 q80 -18 184 -18q252 0 380 155.5t128 503.5zM229 770q0 -244 51.5 -382t165.5 -200l469 1221q-76 18 -176 18q-252 0 -381 -155.5t-129 -501.5z" />
<glyph unicode="&#xd9;" horiz-adv-x="1382" d="M102 1561h172v-1162q0 -147 89.5 -208.5t345.5 -61.5q238 0 399 129v1303h172v-1368q-76 -104 -226.5 -163t-344.5 -59q-305 0 -456 88t-151 324v1178zM897 1788l-25 -92l-487 147l39 133z" />
<glyph unicode="&#xda;" horiz-adv-x="1382" d="M102 1561h172v-1162q0 -147 89.5 -208.5t345.5 -61.5q238 0 399 129v1303h172v-1368q-76 -104 -226.5 -163t-344.5 -59q-305 0 -456 88t-151 324v1178zM506 1698l-25 92l473 186l39 -131z" />
<glyph unicode="&#xdb;" horiz-adv-x="1382" d="M102 1561h172v-1162q0 -147 89.5 -208.5t345.5 -61.5q238 0 399 129v1303h172v-1368q-76 -104 -226.5 -163t-344.5 -59q-305 0 -456 88t-151 324v1178zM1016 1763l-64 -63l-264 211l-260 -211l-61 63l266 242h110z" />
<glyph unicode="&#xdc;" horiz-adv-x="1382" d="M102 1561h172v-1162q0 -147 89.5 -208.5t345.5 -61.5q238 0 399 129v1303h172v-1368q-76 -104 -226.5 -163t-344.5 -59q-305 0 -456 88t-151 324v1178zM811 1944h141v-195h-141v195zM426 1944h139v-195h-139v195z" />
<glyph unicode="&#xdd;" horiz-adv-x="1265" d="M676 0h-189q164 305 250 553h-368q-195 430 -353 1008h193q127 -504 272 -856h310q139 371 266 856h190q-229 -820 -571 -1561zM420 1698l-25 92l473 186l39 -131z" />
<glyph unicode="&#xde;" horiz-adv-x="1290" d="M102 1561h172v-299q164 16 451 16q514 0 514 -432q0 -123 -13.5 -208t-50 -147.5t-86 -98.5t-136.5 -57.5t-184 -28.5t-247 -7h-248v-299h-172v1561zM686 1118q-236 0 -412 -22v-652h281q123 0 194.5 6.5t141.5 26t104.5 57t55 102t20.5 163.5q0 164 -103.5 241.5 t-281.5 77.5z" />
<glyph unicode="&#xdf;" horiz-adv-x="1163" d="M535 -12v157h32q209 -6 285 65t76 288q0 63 -8.5 110t-19.5 81t-38.5 54.5t-52.5 32.5t-75 18.5t-89 7.5t-113 1v129q150 4 216 10q154 18 153 262q0 168 -69.5 223.5t-237.5 55.5q-207 0 -265.5 -78t-58.5 -326v-1079h-168v1182q0 264 100.5 361t348.5 97q270 0 395 -90 t125 -303q0 -305 -176 -373q123 -49 165 -166.5t42 -291.5q0 -238 -131 -333t-436 -95z" />
<glyph unicode="&#xe0;" d="M350 657q170 33 389 33q57 0 123 -4v150q0 188 -184 188q-268 0 -528 -59l-27 131q301 72 557 71q182 0 264 -88t82 -264v-612q-276 -231 -631 -232q-160 0 -247 94.5t-87 243.5q0 291 289 348zM414 115q240 0 448 147v307q-66 4 -114 4q-190 0 -342 -30 q-178 -37 -179 -224q0 -100 50.5 -152t136.5 -52zM770 1364l-25 -92l-487 147l39 133z" />
<glyph unicode="&#xe1;" d="M350 657q170 33 389 33q57 0 123 -4v150q0 188 -184 188q-268 0 -528 -59l-27 131q301 72 557 71q182 0 264 -88t82 -264v-612q-276 -231 -631 -232q-160 0 -247 94.5t-87 243.5q0 291 289 348zM414 115q240 0 448 147v307q-66 4 -114 4q-190 0 -342 -30 q-178 -37 -179 -224q0 -100 50.5 -152t136.5 -52zM379 1274l-25 92l473 186l39 -131z" />
<glyph unicode="&#xe2;" d="M350 657q170 33 389 33q57 0 123 -4v150q0 188 -184 188q-268 0 -528 -59l-27 131q301 72 557 71q182 0 264 -88t82 -264v-612q-276 -231 -631 -232q-160 0 -247 94.5t-87 243.5q0 291 289 348zM414 115q240 0 448 147v307q-66 4 -114 4q-190 0 -342 -30 q-178 -37 -179 -224q0 -100 50.5 -152t136.5 -52zM889 1339l-64 -63l-264 211l-260 -211l-61 63l266 242h110z" />
<glyph unicode="&#xe3;" d="M350 657q170 33 389 33q57 0 123 -4v150q0 188 -184 188q-268 0 -528 -59l-27 131q301 72 557 71q182 0 264 -88t82 -264v-612q-276 -231 -631 -232q-160 0 -247 94.5t-87 243.5q0 291 289 348zM414 115q240 0 448 147v307q-66 4 -114 4q-190 0 -342 -30 q-178 -37 -179 -224q0 -100 50.5 -152t136.5 -52zM414 1405q-76 0 -129 -62l-37 84q55 82 153 82q66 0 164.5 -33.5t139.5 -33.5q78 0 137 57l37 -76q-55 -84 -164 -84q-59 0 -154.5 33t-146.5 33z" />
<glyph unicode="&#xe4;" d="M350 657q170 33 389 33q57 0 123 -4v150q0 188 -184 188q-268 0 -528 -59l-27 131q301 72 557 71q182 0 264 -88t82 -264v-612q-276 -231 -631 -232q-160 0 -247 94.5t-87 243.5q0 291 289 348zM414 115q240 0 448 147v307q-66 4 -114 4q-190 0 -342 -30 q-178 -37 -179 -224q0 -100 50.5 -152t136.5 -52zM684 1520h141v-195h-141v195zM299 1520h139v-195h-139v195z" />
<glyph unicode="&#xe5;" d="M350 657q170 33 389 33q57 0 123 -4v150q0 188 -184 188q-268 0 -528 -59l-27 131q301 72 557 71q182 0 264 -88t82 -264v-612q-276 -231 -631 -232q-160 0 -247 94.5t-87 243.5q0 291 289 348zM414 115q240 0 448 147v307q-66 4 -114 4q-190 0 -342 -30 q-178 -37 -179 -224q0 -100 50.5 -152t136.5 -52zM553 1233q-150 0 -192 50t-42 200q0 147 52.5 187t212.5 40q145 0 189 -51t44 -193q0 -156 -50 -192.5t-214 -40.5zM561 1317q106 0 136 25.5t30 126t-28.5 128t-125.5 27.5q-106 0 -135.5 -25.5t-29.5 -123.5 q0 -102 29.5 -130t123.5 -28z" />
<glyph unicode="&#xe6;" horiz-adv-x="1892" d="M350 657q170 33 389 33q57 0 123 -4v150q0 188 -184 188q-268 0 -528 -59l-27 131q301 72 557 71q137 0 250 -92q178 92 465 92q242 0 341 -128t99 -386v-129h-829q6 -233 70.5 -321t246.5 -88q193 0 442 100l29 -129q-262 -115 -481 -115q-264 0 -391 154 q-236 -154 -527 -154q-160 0 -247 94.5t-87 243.5q0 291 289 348zM414 115q240 0 448 147v307q-66 4 -114 4q-190 0 -342 -30q-178 -37 -179 -224q0 -100 50.5 -152t136.5 -52zM1006 645h663q0 201 -54 290t-220 89q-207 0 -353 -37q-34 -133 -36 -342z" />
<glyph unicode="&#xe7;" horiz-adv-x="1044" d="M467 -438l-64 24q55 229 72 387q-113 10 -196.5 69.5t-129 149t-67 185.5t-21.5 196q0 106 24 205t76 190t149.5 145t230.5 54q248 0 409 -96l-32 -127q-147 82 -381 82q-109 0 -182.5 -70.5t-101.5 -168t-28 -214.5q0 -186 77 -322t235 -136q227 0 393 92l33 -125 q-119 -86 -328 -105l-8 -90q-60 -163 -160 -325z" />
<glyph unicode="&#xe8;" horiz-adv-x="1118" d="M1057 524h-830q6 -233 70.5 -321t247.5 -88q193 0 442 100l29 -129q-262 -115 -481 -115q-150 0 -246 39t-144.5 121t-66 179.5t-17.5 244.5q0 326 62 539q184 74 493 73q242 0 341.5 -128t99.5 -386v-129zM227 645h664q0 201 -54.5 290t-220.5 89q-207 0 -352 -37 q-35 -133 -37 -342zM766 1364l-25 -92l-487 147l39 133z" />
<glyph unicode="&#xe9;" horiz-adv-x="1118" d="M1057 524h-830q6 -233 70.5 -321t247.5 -88q193 0 442 100l29 -129q-262 -115 -481 -115q-150 0 -246 39t-144.5 121t-66 179.5t-17.5 244.5q0 326 62 539q184 74 493 73q242 0 341.5 -128t99.5 -386v-129zM227 645h664q0 201 -54.5 290t-220.5 89q-207 0 -352 -37 q-35 -133 -37 -342zM373 1274l-25 92l473 186l39 -131z" />
<glyph unicode="&#xea;" horiz-adv-x="1118" d="M1057 524h-830q6 -233 70.5 -321t247.5 -88q193 0 442 100l29 -129q-262 -115 -481 -115q-150 0 -246 39t-144.5 121t-66 179.5t-17.5 244.5q0 326 62 539q184 74 493 73q242 0 341.5 -128t99.5 -386v-129zM227 645h664q0 201 -54.5 290t-220.5 89q-207 0 -352 -37 q-35 -133 -37 -342zM883 1339l-64 -63l-264 211l-260 -211l-62 63l267 242h110z" />
<glyph unicode="&#xeb;" horiz-adv-x="1118" d="M1057 524h-830q6 -233 70.5 -321t247.5 -88q193 0 442 100l29 -129q-262 -115 -481 -115q-150 0 -246 39t-144.5 121t-66 179.5t-17.5 244.5q0 326 62 539q184 74 493 73q242 0 341.5 -128t99.5 -386v-129zM227 645h664q0 201 -54.5 290t-220.5 89q-207 0 -352 -37 q-35 -133 -37 -342zM680 1520h141v-195h-141v195zM295 1520h139v-195h-139v195z" />
<glyph unicode="&#xec;" horiz-adv-x="374" d="M395 1364l-24 -92l-488 147l39 133zM102 1137h170v-1137h-170v1137z" />
<glyph unicode="&#xed;" horiz-adv-x="374" d="M8 1274l-24 92l473 186l39 -131zM102 1137h170v-1137h-170v1137z" />
<glyph unicode="&#xee;" horiz-adv-x="374" d="M102 1137h170v-1137h-170v1137zM514 1339l-63 -63l-265 211l-260 -211l-61 63l266 242h111z" />
<glyph unicode="&#xef;" horiz-adv-x="374" d="M309 1520h142v-195h-142v195zM-76 1520h139v-195h-139v195zM102 1137h170v-1137h-170v1137z" />
<glyph unicode="&#xf0;" horiz-adv-x="1200" d="M950 977q-35 205 -155.5 352.5t-268.5 200.5l66 90q244 -80 395.5 -328t151.5 -665q0 -641 -547 -641q-276 0 -403.5 144t-127.5 443q0 113 20.5 209.5t69 183.5t141.5 137t222 50q289 0 436 -176zM961 551q0 186 -33 317q-156 141 -369 142q-190 0 -261 -116t-71 -329 q0 -440 355 -440q379 0 379 426z" />
<glyph unicode="&#xf1;" horiz-adv-x="1185" d="M1083 0h-168v745q0 57 -1 85t-9 73t-24.5 65.5t-49 38t-79.5 17.5q-254 0 -482 -111v-913h-168v987q326 180 672 180q160 0 234.5 -88t74.5 -239v-840zM442 1405q-76 0 -129 -62l-37 84q55 82 154 82q66 0 164 -33.5t139 -33.5q78 0 137 57l37 -76q-55 -84 -164 -84 q-59 0 -154.5 33t-146.5 33z" />
<glyph unicode="&#xf2;" horiz-adv-x="1189" d="M61 563q0 313 141.5 458.5t391.5 145.5q276 0 405 -142t129 -452q0 -313 -142 -457.5t-392 -144.5q-276 0 -404.5 142.5t-128.5 449.5zM963 573q0 254 -86 353.5t-283 99.5q-367 0 -367 -463q0 -252 85 -350t282 -98q369 -1 369 458zM801 1364l-25 -92l-487 147l39 133z " />
<glyph unicode="&#xf3;" horiz-adv-x="1189" d="M61 563q0 313 141.5 458.5t391.5 145.5q276 0 405 -142t129 -452q0 -313 -142 -457.5t-392 -144.5q-276 0 -404.5 142.5t-128.5 449.5zM963 573q0 254 -86 353.5t-283 99.5q-367 0 -367 -463q0 -252 85 -350t282 -98q369 -1 369 458zM410 1274l-25 92l473 186l39 -131z " />
<glyph unicode="&#xf4;" horiz-adv-x="1189" d="M61 563q0 313 141.5 458.5t391.5 145.5q276 0 405 -142t129 -452q0 -313 -142 -457.5t-392 -144.5q-276 0 -404.5 142.5t-128.5 449.5zM963 573q0 254 -86 353.5t-283 99.5q-367 0 -367 -463q0 -252 85 -350t282 -98q369 -1 369 458zM920 1339l-64 -63l-264 211 l-260 -211l-62 63l267 242h110z" />
<glyph unicode="&#xf5;" horiz-adv-x="1189" d="M61 563q0 313 141.5 458.5t391.5 145.5q276 0 405 -142t129 -452q0 -313 -142 -457.5t-392 -144.5q-276 0 -404.5 142.5t-128.5 449.5zM963 573q0 254 -86 353.5t-283 99.5q-367 0 -367 -463q0 -252 85 -350t282 -98q369 -1 369 458zM444 1405q-76 0 -129 -62l-36 84 q55 82 153 82q68 0 164 -33.5t139 -33.5q78 0 137 57l37 -76q-55 -84 -164 -84q-59 0 -154.5 33t-146.5 33z" />
<glyph unicode="&#xf6;" horiz-adv-x="1189" d="M61 563q0 313 141.5 458.5t391.5 145.5q276 0 405 -142t129 -452q0 -313 -142 -457.5t-392 -144.5q-276 0 -404.5 142.5t-128.5 449.5zM963 573q0 254 -86 353.5t-283 99.5q-367 0 -367 -463q0 -252 85 -350t282 -98q369 -1 369 458zM715 1520h141v-195h-141v195z M330 1520h139v-195h-139v195z" />
<glyph unicode="&#xf7;" horiz-adv-x="1148" d="M1047 840v-119h-945v119h945zM500 518h170v-239h-170v239zM500 1288h170v-239h-170v239z" />
<glyph unicode="&#xf8;" horiz-adv-x="1189" d="M371 -174l-109 39l60 153q-260 113 -261 545q0 313 141.5 458.5t391.5 145.5q88 0 166 -16l59 149l111 -38l-58 -150q256 -115 256 -539q0 -313 -142 -457.5t-392 -144.5q-63 0 -162 17zM225 563q0 -317 156 -401l332 850q-55 12 -119 12q-369 0 -369 -461zM963 573 q0 309 -152 398l-330 -848q43 -8 113 -8q369 -1 369 458z" />
<glyph unicode="&#xf9;" horiz-adv-x="1167" d="M102 1137h166v-858q0 -78 44 -121t122 -43q242 0 461 110v912h170v-987q-328 -178 -653 -179q-309 0 -310 328v838zM791 1364l-25 -92l-487 147l38 133z" />
<glyph unicode="&#xfa;" horiz-adv-x="1167" d="M102 1137h166v-858q0 -78 44 -121t122 -43q242 0 461 110v912h170v-987q-328 -178 -653 -179q-309 0 -310 328v838zM399 1274l-24 92l473 186l39 -131z" />
<glyph unicode="&#xfb;" horiz-adv-x="1167" d="M102 1137h166v-858q0 -78 44 -121t122 -43q242 0 461 110v912h170v-987q-328 -178 -653 -179q-309 0 -310 328v838zM907 1339l-63 -63l-264 211l-261 -211l-61 63l266 242h111z" />
<glyph unicode="&#xfc;" horiz-adv-x="1167" d="M102 1137h166v-858q0 -78 44 -121t122 -43q242 0 461 110v912h170v-987q-328 -178 -653 -179q-309 0 -310 328v838zM705 1520h141v-195h-141v195zM319 1520h140v-195h-140v195z" />
<glyph unicode="&#xfd;" horiz-adv-x="1095" d="M201 1137q66 -469 161 -893h293q125 324 250 893h176q-43 -193 -78.5 -330t-97 -332.5t-125 -342t-156 -301.5t-198.5 -265l-117 84q160 170 283 444h-352q-139 524 -222 1043h183zM334 1274l-25 92l473 186l39 -131z" />
<glyph unicode="&#xfe;" d="M102 1620h170v-543q156 90 398 90q141 0 234 -88t128 -212t35 -277q0 -176 -46 -310.5t-161 -221.5t-289 -87q-154 0 -301 29v-406h-168v2026zM268 926v-776q133 -39 303 -39t251 127t81 346q0 197 -63.5 317.5t-188.5 120.5q-213 0 -383 -96z" />
<glyph unicode="&#xff;" horiz-adv-x="1095" d="M201 1137q66 -469 161 -893h293q125 324 250 893h176q-43 -193 -78.5 -330t-97 -332.5t-125 -342t-156 -301.5t-198.5 -265l-117 84q160 170 283 444h-352q-139 524 -222 1043h183zM668 1520h141v-195h-141v195zM283 1520h139v-195h-139v195z" />
<glyph unicode="&#x152;" horiz-adv-x="2308" d="M2218 1561v-160h-799v-512h766v-152h-766v-256q0 -240 156 -325h649v-156h-717q-184 78 -213 283q-141 -311 -555 -312q-371 0 -524.5 187.5t-153.5 611.5q0 430 173.5 623.5t504.5 193.5q377 0 508 -246v220h971zM1247 788q0 360 -115.5 499.5t-392.5 139.5 q-252 0 -381 -155.5t-129 -501.5q0 -360 116 -500.5t394 -140.5q252 0 380 155.5t128 503.5z" />
<glyph unicode="&#x153;" horiz-adv-x="1976" d="M61 563q0 313 141.5 458.5t391.5 145.5q221 0 350 -92q190 92 526 92q242 0 341.5 -128t99.5 -386v-129h-785q-2 -121 -36 -229q55 -180 309 -180q193 0 442 100l29 -129q-262 -115 -481 -115q-287 0 -392 156q-137 -156 -403 -156q-276 0 -404.5 142.5t-128.5 449.5z M963 573q0 254 -86 353.5t-283 99.5q-367 0 -367 -463q0 -252 85 -350t282 -98q369 -1 369 458zM1470 1024q-240 0 -419 -70q66 -119 75 -309h619q0 201 -54.5 290t-220.5 89z" />
<glyph unicode="&#x178;" horiz-adv-x="1265" d="M676 0h-189q164 305 250 553h-368q-195 430 -353 1008h193q127 -504 272 -856h310q139 371 266 856h190q-229 -820 -571 -1561zM752 1944h141v-195h-141v195zM367 1944h139v-195h-139v195z" />
<glyph unicode="&#x2c6;" horiz-adv-x="854" d="M752 1339l-64 -63l-264 211l-260 -211l-62 63l267 242h110z" />
<glyph unicode="&#x2dc;" horiz-adv-x="837" d="M268 1405q-76 0 -129 -62l-37 84q55 82 154 82q68 0 164 -33.5t139 -33.5q78 0 137 57l37 -76q-55 -84 -164 -84q-59 0 -154.5 33t-146.5 33z" />
<glyph unicode="&#x2000;" horiz-adv-x="1001" />
<glyph unicode="&#x2001;" horiz-adv-x="2004" />
<glyph unicode="&#x2002;" horiz-adv-x="1001" />
<glyph unicode="&#x2003;" horiz-adv-x="2004" />
<glyph unicode="&#x2004;" horiz-adv-x="667" />
<glyph unicode="&#x2005;" horiz-adv-x="499" />
<glyph unicode="&#x2006;" horiz-adv-x="333" />
<glyph unicode="&#x2007;" horiz-adv-x="333" />
<glyph unicode="&#x2008;" horiz-adv-x="249" />
<glyph unicode="&#x2009;" horiz-adv-x="399" />
<glyph unicode="&#x200a;" horiz-adv-x="110" />
<glyph unicode="&#x2010;" horiz-adv-x="761" d="M659 666v-154h-557v154h557z" />
<glyph unicode="&#x2011;" horiz-adv-x="761" d="M659 666v-154h-557v154h557z" />
<glyph unicode="&#x2012;" horiz-adv-x="761" d="M659 666v-154h-557v154h557z" />
<glyph unicode="&#x2013;" horiz-adv-x="1468" d="M1366 666v-154h-1264v154h1264z" />
<glyph unicode="&#x2014;" horiz-adv-x="2101" d="M1999 672v-154h-1897v154h1897z" />
<glyph unicode="&#x2018;" horiz-adv-x="325" d="M293 1075l-76 -12q-137 250 -186 528l166 19q33 -240 96 -535z" />
<glyph unicode="&#x2019;" horiz-adv-x="325" d="M104 1063l-73 12q72 350 94 535l168 -19q-56 -288 -189 -528z" />
<glyph unicode="&#x201a;" horiz-adv-x="325" d="M104 -309l-73 10q72 362 94 535l168 -19q-56 -286 -189 -526z" />
<glyph unicode="&#x201c;" horiz-adv-x="677" d="M293 1075l-76 -12q-137 250 -186 528l166 19q33 -240 96 -535zM647 1075l-76 -12q-133 240 -188 528l168 19q33 -240 96 -535z" />
<glyph unicode="&#x201d;" horiz-adv-x="677" d="M459 1063l-76 12q63 295 96 535l168 -19q-55 -288 -188 -528zM104 1063l-73 12q72 350 94 535l168 -19q-56 -288 -189 -528z" />
<glyph unicode="&#x201e;" horiz-adv-x="677" d="M459 -309l-76 10q66 305 96 535l168 -19q-55 -286 -188 -526zM104 -309l-73 10q72 362 94 535l168 -19q-56 -286 -189 -526z" />
<glyph unicode="&#x2022;" horiz-adv-x="1038" d="M209 847.5q0 194.5 69.5 259t245.5 64.5q174 0 246 -64.5t72 -259t-71 -258t-247 -63.5t-245.5 63.5t-69.5 258z" />
<glyph unicode="&#x2026;" horiz-adv-x="1482" d="M1251 240h170v-240h-170v240zM655 240h170v-240h-170v240zM61 240h170v-240h-170v240z" />
<glyph unicode="&#x202f;" horiz-adv-x="399" />
<glyph unicode="&#x2039;" horiz-adv-x="503" d="M391 913l51 -65l-288 -246l288 -248l-51 -65l-330 282v58z" />
<glyph unicode="&#x203a;" horiz-adv-x="503" d="M61 846l52 67l329 -284v-56l-329 -284l-52 63l287 248z" />
<glyph unicode="&#x205f;" horiz-adv-x="499" />
<glyph unicode="&#x20ac;" horiz-adv-x="1314" d="M879 860l-82 -153h-496q6 -117 28.5 -214.5t67.5 -182.5t122 -133t179 -48q272 0 494 104l37 -145q-90 -47 -232.5 -82t-289.5 -35q-121 0 -218.5 42t-160 111t-106.5 166t-64.5 198.5t-26.5 218.5h-117l27 153h88q6 143 38 268t92 230.5t160.5 167t229.5 61.5 q313 0 570 -80l-76 -143q-229 63 -496 63q-111 0 -189.5 -83.5t-114.5 -207.5t-42 -276h578z" />
<glyph unicode="&#x2122;" horiz-adv-x="1529" d="M1436 823h-109l-37 498l-194 -430h-60l-190 426l-33 -494h-111l39 738h101l225 -517l227 517h101zM416 823h-105v633h-209v105h521v-105h-207v-633z" />
<glyph unicode="&#xe000;" horiz-adv-x="1135" d="M0 1135h1135v-1135h-1135v1135z" />
<glyph unicode="&#xfb01;" horiz-adv-x="974" d="M870 1137v-1137h-168v1012h-438v-1012h-168v1012h-73v69l55 56h18v221q0 160 111.5 221t316.5 61q123 0 230.5 -28.5t154.5 -69.5l-37 -147q-119 117 -348 116q-131 0 -195.5 -39.5t-64.5 -150.5v-184h606z" />
<glyph unicode="&#xfb02;" horiz-adv-x="972" d="M575 1137v-125h-311v-1012h-168v1012h-73v69l55 56h18v221q0 68 21.5 118t57.5 80.5t89 50t110.5 26.5t129.5 7q252 0 366 -79v-1561h-170v1477q-80 35 -196 34q-127 0 -183.5 -40.5t-56.5 -149.5v-184h311z" />
<glyph unicode="&#xfb03;" horiz-adv-x="1460" d="M1008 1511q-129 0 -193.5 -39.5t-64.5 -150.5v-184h604v-1137h-168v1012h-436v-1012h-168v1012h-318v-1012h-168v1012h-73v69l55 56h18v174q0 281 375 280q127 0 195 -30q96 80 342 79q125 0 232.5 -28.5t154.5 -69.5l-37 -147q-119 116 -350 116zM264 1274v-137h318v161 q0 109 20 150q-63 14 -156 14q-86 0 -134 -41t-48 -147z" />
<glyph unicode="&#xfb04;" horiz-adv-x="1458" d="M1061 1137v-125h-311v-1012h-168v1012h-318v-1012h-168v1012h-73v69l55 56h18v174q0 281 375 280q127 0 195 -30q94 80 321 79q248 0 367 -79v-1561h-168v1477q-82 35 -199 34q-127 0 -182 -40.5t-55 -149.5v-184h311zM264 1274v-137h318v161q0 109 20 150 q-63 14 -156 14q-86 0 -134 -41t-48 -147z" />
</font>
</defs>
</svg>
